<svg width="243" height="23" viewBox="0 0 243 23" fill="none" xmlns="http://www.w3.org/2000/svg">
<path d="M14.7812 18H11.7695L5.93359 11.0625H2.66406V18H0.34375V0.550781H5.23047C6.28516 0.550781 7.16406 0.621094 7.86719 0.761719C8.57031 0.894531 9.20312 1.13672 9.76562 1.48828C10.3984 1.88672 10.8906 2.39062 11.2422 3C11.6016 3.60156 11.7812 4.36719 11.7812 5.29688C11.7812 6.55469 11.4648 7.60938 10.832 8.46094C10.1992 9.30469 9.32812 9.94141 8.21875 10.3711L14.7812 18ZM9.35547 5.46094C9.35547 4.96094 9.26562 4.51953 9.08594 4.13672C8.91406 3.74609 8.625 3.41797 8.21875 3.15234C7.88281 2.92578 7.48438 2.76953 7.02344 2.68359C6.5625 2.58984 6.01953 2.54297 5.39453 2.54297H2.66406V9.12891H5.00781C5.74219 9.12891 6.38281 9.06641 6.92969 8.94141C7.47656 8.80859 7.94141 8.56641 8.32422 8.21484C8.67578 7.88672 8.93359 7.51172 9.09766 7.08984C9.26953 6.66016 9.35547 6.11719 9.35547 5.46094ZM27.2266 11.6836H17.582C17.582 12.4883 17.7031 13.1914 17.9453 13.793C18.1875 14.3867 18.5195 14.875 18.9414 15.2578C19.3477 15.6328 19.8281 15.9141 20.3828 16.1016C20.9453 16.2891 21.5625 16.3828 22.2344 16.3828C23.125 16.3828 24.0195 16.207 24.918 15.8555C25.8242 15.4961 26.4688 15.1445 26.8516 14.8008H26.9688V17.2031C26.2266 17.5156 25.4688 17.7773 24.6953 17.9883C23.9219 18.1992 23.1094 18.3047 22.2578 18.3047C20.0859 18.3047 18.3906 17.7188 17.1719 16.5469C15.9531 15.3672 15.3438 13.6953 15.3438 11.5312C15.3438 9.39062 15.9258 7.69141 17.0898 6.43359C18.2617 5.17578 19.8008 4.54688 21.707 4.54688C23.4727 4.54688 24.832 5.0625 25.7852 6.09375C26.7461 7.125 27.2266 8.58984 27.2266 10.4883V11.6836ZM25.082 9.99609C25.0742 8.83984 24.7812 7.94531 24.2031 7.3125C23.6328 6.67969 22.7617 6.36328 21.5898 6.36328C20.4102 6.36328 19.4688 6.71094 18.7656 7.40625C18.0703 8.10156 17.6758 8.96484 17.582 9.99609H25.082ZM39.918 14.2266C39.918 15.4219 39.4219 16.4023 38.4297 17.168C37.4453 17.9336 36.0977 18.3164 34.3867 18.3164C33.418 18.3164 32.5273 18.2031 31.7148 17.9766C30.9102 17.7422 30.2344 17.4883 29.6875 17.2148V14.7422H29.8047C30.5 15.2656 31.2734 15.6836 32.125 15.9961C32.9766 16.3008 33.793 16.4531 34.5742 16.4531C35.543 16.4531 36.3008 16.2969 36.8477 15.9844C37.3945 15.6719 37.668 15.1797 37.668 14.5078C37.668 13.9922 37.5195 13.6016 37.2227 13.3359C36.9258 13.0703 36.3555 12.8438 35.5117 12.6562C35.1992 12.5859 34.7891 12.5039 34.2812 12.4102C33.7812 12.3164 33.3242 12.2148 32.9102 12.1055C31.7617 11.8008 30.9453 11.3555 30.4609 10.7695C29.9844 10.1758 29.7461 9.44922 29.7461 8.58984C29.7461 8.05078 29.8555 7.54297 30.0742 7.06641C30.3008 6.58984 30.6406 6.16406 31.0938 5.78906C31.5312 5.42188 32.0859 5.13281 32.7578 4.92188C33.4375 4.70312 34.1953 4.59375 35.0312 4.59375C35.8125 4.59375 36.6016 4.69141 37.3984 4.88672C38.2031 5.07422 38.8711 5.30469 39.4023 5.57812V7.93359H39.2852C38.7227 7.51953 38.0391 7.17188 37.2344 6.89062C36.4297 6.60156 35.6406 6.45703 34.8672 6.45703C34.0625 6.45703 33.3828 6.61328 32.8281 6.92578C32.2734 7.23047 31.9961 7.6875 31.9961 8.29688C31.9961 8.83594 32.1641 9.24219 32.5 9.51562C32.8281 9.78906 33.3594 10.0117 34.0938 10.1836C34.5 10.2773 34.9531 10.3711 35.4531 10.4648C35.9609 10.5586 36.3828 10.6445 36.7188 10.7227C37.7422 10.957 38.5312 11.3594 39.0859 11.9297C39.6406 12.5078 39.918 13.2734 39.918 14.2266ZM52.7617 17.1797C52.0273 17.5312 51.3281 17.8047 50.6641 18C50.0078 18.1953 49.3086 18.293 48.5664 18.293C47.6211 18.293 46.7539 18.1562 45.9648 17.8828C45.1758 17.6016 44.5 17.1797 43.9375 16.6172C43.3672 16.0547 42.9258 15.3438 42.6133 14.4844C42.3008 13.625 42.1445 12.6211 42.1445 11.4727C42.1445 9.33203 42.7305 7.65234 43.9023 6.43359C45.082 5.21484 46.6367 4.60547 48.5664 4.60547C49.3164 4.60547 50.0508 4.71094 50.7695 4.92188C51.4961 5.13281 52.1602 5.39062 52.7617 5.69531V8.14453H52.6445C51.9727 7.62109 51.2773 7.21875 50.5586 6.9375C49.8477 6.65625 49.1523 6.51562 48.4727 6.51562C47.2227 6.51562 46.2344 6.9375 45.5078 7.78125C44.7891 8.61719 44.4297 9.84766 44.4297 11.4727C44.4297 13.0508 44.7812 14.2656 45.4844 15.1172C46.1953 15.9609 47.1914 16.3828 48.4727 16.3828C48.918 16.3828 49.3711 16.3242 49.832 16.207C50.293 16.0898 50.707 15.9375 51.0742 15.75C51.3945 15.5859 51.6953 15.4141 51.9766 15.2344C52.2578 15.0469 52.4805 14.8867 52.6445 14.7539H52.7617V17.1797ZM66.4492 18H64.2461V16.5469C63.5039 17.1328 62.793 17.582 62.1133 17.8945C61.4336 18.207 60.6836 18.3633 59.8633 18.3633C58.4883 18.3633 57.418 17.9453 56.6523 17.1094C55.8867 16.2656 55.5039 15.0312 55.5039 13.4062V4.91016H57.707V12.3633C57.707 13.0273 57.7383 13.5977 57.8008 14.0742C57.8633 14.543 57.9961 14.9453 58.1992 15.2812C58.4102 15.625 58.6836 15.875 59.0195 16.0312C59.3555 16.1875 59.8438 16.2656 60.4844 16.2656C61.0547 16.2656 61.6758 16.1172 62.3477 15.8203C63.0273 15.5234 63.6602 15.1445 64.2461 14.6836V4.91016H66.4492V18ZM81.7422 11.6836H72.0977C72.0977 12.4883 72.2188 13.1914 72.4609 13.793C72.7031 14.3867 73.0352 14.875 73.457 15.2578C73.8633 15.6328 74.3438 15.9141 74.8984 16.1016C75.4609 16.2891 76.0781 16.3828 76.75 16.3828C77.6406 16.3828 78.5352 16.207 79.4336 15.8555C80.3398 15.4961 80.9844 15.1445 81.3672 14.8008H81.4844V17.2031C80.7422 17.5156 79.9844 17.7773 79.2109 17.9883C78.4375 18.1992 77.625 18.3047 76.7734 18.3047C74.6016 18.3047 72.9062 17.7188 71.6875 16.5469C70.4688 15.3672 69.8594 13.6953 69.8594 11.5312C69.8594 9.39062 70.4414 7.69141 71.6055 6.43359C72.7773 5.17578 74.3164 4.54688 76.2227 4.54688C77.9883 4.54688 79.3477 5.0625 80.3008 6.09375C81.2617 7.125 81.7422 8.58984 81.7422 10.4883V11.6836ZM79.5977 9.99609C79.5898 8.83984 79.2969 7.94531 78.7188 7.3125C78.1484 6.67969 77.2773 6.36328 76.1055 6.36328C74.9258 6.36328 73.9844 6.71094 73.2812 7.40625C72.5859 8.10156 72.1914 8.96484 72.0977 9.99609H79.5977ZM101.629 9.29297C101.629 10.918 101.258 12.375 100.516 13.6641C99.7734 14.9453 98.8359 15.9297 97.7031 16.6172C96.8516 17.1328 95.918 17.4922 94.9023 17.6953C93.8867 17.8984 92.6836 18 91.293 18H85.1406V0.550781H91.4688C92.8906 0.550781 94.1172 0.671875 95.1484 0.914062C96.1797 1.14844 97.0469 1.48438 97.75 1.92188C98.9531 2.65625 99.8984 3.64844 100.586 4.89844C101.281 6.14062 101.629 7.60547 101.629 9.29297ZM96.9766 9.25781C96.9766 8.10938 96.7656 7.12891 96.3438 6.31641C95.9297 5.49609 95.2695 4.85547 94.3633 4.39453C93.9023 4.16797 93.4297 4.01562 92.9453 3.9375C92.4688 3.85156 91.7461 3.80859 90.7773 3.80859H89.6406V14.7305H90.7773C91.8477 14.7305 92.6328 14.6836 93.1328 14.5898C93.6328 14.4883 94.1211 14.3086 94.5977 14.0508C95.418 13.582 96.0195 12.957 96.4023 12.1758C96.7852 11.3867 96.9766 10.4141 96.9766 9.25781ZM118.281 11.4258C118.281 13.5898 117.648 15.2969 116.383 16.5469C115.125 17.7891 113.355 18.4102 111.074 18.4102C108.793 18.4102 107.02 17.7891 105.754 16.5469C104.496 15.2969 103.867 13.5898 103.867 11.4258C103.867 9.24609 104.5 7.53516 105.766 6.29297C107.039 5.05078 108.809 4.42969 111.074 4.42969C113.371 4.42969 115.145 5.05469 116.395 6.30469C117.652 7.55469 118.281 9.26172 118.281 11.4258ZM113.09 14.625C113.363 14.2891 113.566 13.8867 113.699 13.418C113.84 12.9414 113.91 12.2852 113.91 11.4492C113.91 10.6758 113.84 10.0273 113.699 9.50391C113.559 8.98047 113.363 8.5625 113.113 8.25C112.863 7.92969 112.562 7.70312 112.211 7.57031C111.859 7.4375 111.48 7.37109 111.074 7.37109C110.668 7.37109 110.305 7.42578 109.984 7.53516C109.672 7.64453 109.371 7.86328 109.082 8.19141C108.824 8.49609 108.617 8.91406 108.461 9.44531C108.312 9.97656 108.238 10.6445 108.238 11.4492C108.238 12.168 108.305 12.793 108.438 13.3242C108.57 13.8477 108.766 14.2695 109.023 14.5898C109.273 14.8945 109.57 15.1172 109.914 15.2578C110.266 15.3984 110.664 15.4688 111.109 15.4688C111.492 15.4688 111.855 15.4062 112.199 15.2812C112.551 15.1484 112.848 14.9297 113.09 14.625ZM134.102 16.4883C134.102 17.7227 133.926 18.7617 133.574 19.6055C133.223 20.4492 132.73 21.1094 132.098 21.5859C131.465 22.0703 130.699 22.418 129.801 22.6289C128.91 22.8477 127.902 22.957 126.777 22.957C125.863 22.957 124.961 22.9023 124.07 22.793C123.188 22.6836 122.422 22.5508 121.773 22.3945V19.1016H122.289C122.805 19.3047 123.434 19.4883 124.176 19.6523C124.918 19.8242 125.582 19.9102 126.168 19.9102C126.949 19.9102 127.582 19.8359 128.066 19.6875C128.559 19.5469 128.934 19.3438 129.191 19.0781C129.434 18.8281 129.609 18.5078 129.719 18.1172C129.828 17.7266 129.883 17.2578 129.883 16.7109V16.4648C129.375 16.8789 128.812 17.207 128.195 17.4492C127.578 17.6914 126.891 17.8125 126.133 17.8125C124.289 17.8125 122.867 17.2578 121.867 16.1484C120.867 15.0391 120.367 13.3516 120.367 11.0859C120.367 10 120.52 9.0625 120.824 8.27344C121.129 7.48438 121.559 6.79688 122.113 6.21094C122.629 5.66406 123.262 5.23828 124.012 4.93359C124.77 4.62891 125.543 4.47656 126.332 4.47656C127.043 4.47656 127.688 4.5625 128.266 4.73438C128.852 4.89844 129.383 5.12891 129.859 5.42578L130.012 4.83984H134.102V16.4883ZM129.883 13.8516V7.88672C129.641 7.78516 129.344 7.70703 128.992 7.65234C128.641 7.58984 128.324 7.55859 128.043 7.55859C126.934 7.55859 126.102 7.87891 125.547 8.51953C124.992 9.15234 124.715 10.0391 124.715 11.1797C124.715 12.4453 124.949 13.3281 125.418 13.8281C125.895 14.3281 126.598 14.5781 127.527 14.5781C127.949 14.5781 128.363 14.5117 128.77 14.3789C129.176 14.2461 129.547 14.0703 129.883 13.8516ZM149.523 13.8281C149.523 15.1875 148.914 16.2852 147.695 17.1211C146.477 17.9492 144.809 18.3633 142.691 18.3633C141.52 18.3633 140.457 18.2539 139.504 18.0352C138.551 17.8164 137.785 17.5742 137.207 17.3086V13.8398H137.594C137.805 13.9883 138.047 14.1523 138.32 14.332C138.602 14.5039 138.996 14.6914 139.504 14.8945C139.941 15.0742 140.438 15.2305 140.992 15.3633C141.547 15.4883 142.141 15.5508 142.773 15.5508C143.602 15.5508 144.215 15.4609 144.613 15.2812C145.012 15.0938 145.211 14.8203 145.211 14.4609C145.211 14.1406 145.094 13.9102 144.859 13.7695C144.625 13.6211 144.18 13.4805 143.523 13.3477C143.211 13.2773 142.785 13.2031 142.246 13.125C141.715 13.0391 141.23 12.9375 140.793 12.8203C139.598 12.5078 138.711 12.0234 138.133 11.3672C137.555 10.7031 137.266 9.87891 137.266 8.89453C137.266 7.62891 137.863 6.57812 139.059 5.74219C140.262 4.89844 141.902 4.47656 143.98 4.47656C144.965 4.47656 145.906 4.57812 146.805 4.78125C147.711 4.97656 148.418 5.1875 148.926 5.41406V8.74219H148.562C147.938 8.3125 147.223 7.96484 146.418 7.69922C145.621 7.42578 144.812 7.28906 143.992 7.28906C143.312 7.28906 142.738 7.38281 142.27 7.57031C141.809 7.75781 141.578 8.02344 141.578 8.36719C141.578 8.67969 141.684 8.91797 141.895 9.08203C142.105 9.24609 142.602 9.41016 143.383 9.57422C143.812 9.66016 144.273 9.74609 144.766 9.83203C145.266 9.91016 145.766 10.0117 146.266 10.1367C147.375 10.4258 148.195 10.8828 148.727 11.5078C149.258 12.125 149.523 12.8984 149.523 13.8281ZM172.621 18H161.125V0.550781H172.621V2.61328H163.445V7.39453H172.621V9.45703H163.445V15.9375H172.621V18ZM186.988 18H184.785V16.5469C184.043 17.1328 183.332 17.582 182.652 17.8945C181.973 18.207 181.223 18.3633 180.402 18.3633C179.027 18.3633 177.957 17.9453 177.191 17.1094C176.426 16.2656 176.043 15.0312 176.043 13.4062V4.91016H178.246V12.3633C178.246 13.0273 178.277 13.5977 178.34 14.0742C178.402 14.543 178.535 14.9453 178.738 15.2812C178.949 15.625 179.223 15.875 179.559 16.0312C179.895 16.1875 180.383 16.2656 181.023 16.2656C181.594 16.2656 182.215 16.1172 182.887 15.8203C183.566 15.5234 184.199 15.1445 184.785 14.6836V4.91016H186.988V18ZM199.492 7.3125H199.375C199.047 7.23438 198.727 7.17969 198.414 7.14844C198.109 7.10938 197.746 7.08984 197.324 7.08984C196.645 7.08984 195.988 7.24219 195.355 7.54688C194.723 7.84375 194.113 8.23047 193.527 8.70703V18H191.324V4.91016H193.527V6.84375C194.402 6.14062 195.172 5.64453 195.836 5.35547C196.508 5.05859 197.191 4.91016 197.887 4.91016C198.27 4.91016 198.547 4.92188 198.719 4.94531C198.891 4.96094 199.148 4.99609 199.492 5.05078V7.3125ZM212.723 11.4609C212.723 13.5938 212.176 15.2773 211.082 16.5117C209.988 17.7461 208.523 18.3633 206.688 18.3633C204.836 18.3633 203.363 17.7461 202.27 16.5117C201.184 15.2773 200.641 13.5938 200.641 11.4609C200.641 9.32812 201.184 7.64453 202.27 6.41016C203.363 5.16797 204.836 4.54688 206.688 4.54688C208.523 4.54688 209.988 5.16797 211.082 6.41016C212.176 7.64453 212.723 9.32812 212.723 11.4609ZM210.449 11.4609C210.449 9.76562 210.117 8.50781 209.453 7.6875C208.789 6.85938 207.867 6.44531 206.688 6.44531C205.492 6.44531 204.562 6.85938 203.898 7.6875C203.242 8.50781 202.914 9.76562 202.914 11.4609C202.914 13.1016 203.246 14.3477 203.91 15.1992C204.574 16.043 205.5 16.4648 206.688 16.4648C207.859 16.4648 208.777 16.0469 209.441 15.2109C210.113 14.3672 210.449 13.1172 210.449 11.4609ZM227.664 11.2969C227.664 12.3594 227.512 13.332 227.207 14.2148C226.902 15.0898 226.473 15.832 225.918 16.4414C225.402 17.0195 224.793 17.4688 224.09 17.7891C223.395 18.1016 222.656 18.2578 221.875 18.2578C221.195 18.2578 220.578 18.1836 220.023 18.0352C219.477 17.8867 218.918 17.6562 218.348 17.3438V22.8281H216.145V4.91016H218.348V6.28125C218.934 5.78906 219.59 5.37891 220.316 5.05078C221.051 4.71484 221.832 4.54688 222.66 4.54688C224.238 4.54688 225.465 5.14453 226.34 6.33984C227.223 7.52734 227.664 9.17969 227.664 11.2969ZM225.391 11.3555C225.391 9.77734 225.121 8.59766 224.582 7.81641C224.043 7.03516 223.215 6.64453 222.098 6.64453C221.465 6.64453 220.828 6.78125 220.188 7.05469C219.547 7.32812 218.934 7.6875 218.348 8.13281V15.5508C218.973 15.832 219.508 16.0234 219.953 16.125C220.406 16.2266 220.918 16.2773 221.488 16.2773C222.715 16.2773 223.672 15.8633 224.359 15.0352C225.047 14.207 225.391 12.9805 225.391 11.3555ZM242.055 11.6836H232.41C232.41 12.4883 232.531 13.1914 232.773 13.793C233.016 14.3867 233.348 14.875 233.77 15.2578C234.176 15.6328 234.656 15.9141 235.211 16.1016C235.773 16.2891 236.391 16.3828 237.062 16.3828C237.953 16.3828 238.848 16.207 239.746 15.8555C240.652 15.4961 241.297 15.1445 241.68 14.8008H241.797V17.2031C241.055 17.5156 240.297 17.7773 239.523 17.9883C238.75 18.1992 237.938 18.3047 237.086 18.3047C234.914 18.3047 233.219 17.7188 232 16.5469C230.781 15.3672 230.172 13.6953 230.172 11.5312C230.172 9.39062 230.754 7.69141 231.918 6.43359C233.09 5.17578 234.629 4.54688 236.535 4.54688C238.301 4.54688 239.66 5.0625 240.613 6.09375C241.574 7.125 242.055 8.58984 242.055 10.4883V11.6836ZM239.91 9.99609C239.902 8.83984 239.609 7.94531 239.031 7.3125C238.461 6.67969 237.59 6.36328 236.418 6.36328C235.238 6.36328 234.297 6.71094 233.594 7.40625C232.898 8.10156 232.504 8.96484 232.41 9.99609H239.91Z" fill="white"/>
</svg>
