<svg width="246" height="29" viewBox="0 0 246 29" fill="none" xmlns="http://www.w3.org/2000/svg">
<path d="M16.7812 24H13.7695L7.93359 17.0625H4.66406V24H2.34375V6.55078H7.23047C8.28516 6.55078 9.16406 6.62109 9.86719 6.76172C10.5703 6.89453 11.2031 7.13672 11.7656 7.48828C12.3984 7.88672 12.8906 8.39062 13.2422 9C13.6016 9.60156 13.7812 10.3672 13.7812 11.2969C13.7812 12.5547 13.4648 13.6094 12.832 14.4609C12.1992 15.3047 11.3281 15.9414 10.2188 16.3711L16.7812 24ZM11.3555 11.4609C11.3555 10.9609 11.2656 10.5195 11.0859 10.1367C10.9141 9.74609 10.625 9.41797 10.2188 9.15234C9.88281 8.92578 9.48438 8.76953 9.02344 8.68359C8.5625 8.58984 8.01953 8.54297 7.39453 8.54297H4.66406V15.1289H7.00781C7.74219 15.1289 8.38281 15.0664 8.92969 14.9414C9.47656 14.8086 9.94141 14.5664 10.3242 14.2148C10.6758 13.8867 10.9336 13.5117 11.0977 13.0898C11.2695 12.6602 11.3555 12.1172 11.3555 11.4609ZM29.2266 17.6836H19.582C19.582 18.4883 19.7031 19.1914 19.9453 19.793C20.1875 20.3867 20.5195 20.875 20.9414 21.2578C21.3477 21.6328 21.8281 21.9141 22.3828 22.1016C22.9453 22.2891 23.5625 22.3828 24.2344 22.3828C25.125 22.3828 26.0195 22.207 26.918 21.8555C27.8242 21.4961 28.4688 21.1445 28.8516 20.8008H28.9688V23.2031C28.2266 23.5156 27.4688 23.7773 26.6953 23.9883C25.9219 24.1992 25.1094 24.3047 24.2578 24.3047C22.0859 24.3047 20.3906 23.7188 19.1719 22.5469C17.9531 21.3672 17.3438 19.6953 17.3438 17.5312C17.3438 15.3906 17.9258 13.6914 19.0898 12.4336C20.2617 11.1758 21.8008 10.5469 23.707 10.5469C25.4727 10.5469 26.832 11.0625 27.7852 12.0938C28.7461 13.125 29.2266 14.5898 29.2266 16.4883V17.6836ZM27.082 15.9961C27.0742 14.8398 26.7812 13.9453 26.2031 13.3125C25.6328 12.6797 24.7617 12.3633 23.5898 12.3633C22.4102 12.3633 21.4688 12.7109 20.7656 13.4062C20.0703 14.1016 19.6758 14.9648 19.582 15.9961H27.082ZM41.918 20.2266C41.918 21.4219 41.4219 22.4023 40.4297 23.168C39.4453 23.9336 38.0977 24.3164 36.3867 24.3164C35.418 24.3164 34.5273 24.2031 33.7148 23.9766C32.9102 23.7422 32.2344 23.4883 31.6875 23.2148V20.7422H31.8047C32.5 21.2656 33.2734 21.6836 34.125 21.9961C34.9766 22.3008 35.793 22.4531 36.5742 22.4531C37.543 22.4531 38.3008 22.2969 38.8477 21.9844C39.3945 21.6719 39.668 21.1797 39.668 20.5078C39.668 19.9922 39.5195 19.6016 39.2227 19.3359C38.9258 19.0703 38.3555 18.8438 37.5117 18.6562C37.1992 18.5859 36.7891 18.5039 36.2812 18.4102C35.7812 18.3164 35.3242 18.2148 34.9102 18.1055C33.7617 17.8008 32.9453 17.3555 32.4609 16.7695C31.9844 16.1758 31.7461 15.4492 31.7461 14.5898C31.7461 14.0508 31.8555 13.543 32.0742 13.0664C32.3008 12.5898 32.6406 12.1641 33.0938 11.7891C33.5312 11.4219 34.0859 11.1328 34.7578 10.9219C35.4375 10.7031 36.1953 10.5938 37.0312 10.5938C37.8125 10.5938 38.6016 10.6914 39.3984 10.8867C40.2031 11.0742 40.8711 11.3047 41.4023 11.5781V13.9336H41.2852C40.7227 13.5195 40.0391 13.1719 39.2344 12.8906C38.4297 12.6016 37.6406 12.457 36.8672 12.457C36.0625 12.457 35.3828 12.6133 34.8281 12.9258C34.2734 13.2305 33.9961 13.6875 33.9961 14.2969C33.9961 14.8359 34.1641 15.2422 34.5 15.5156C34.8281 15.7891 35.3594 16.0117 36.0938 16.1836C36.5 16.2773 36.9531 16.3711 37.4531 16.4648C37.9609 16.5586 38.3828 16.6445 38.7188 16.7227C39.7422 16.957 40.5312 17.3594 41.0859 17.9297C41.6406 18.5078 41.918 19.2734 41.918 20.2266ZM54.7617 23.1797C54.0273 23.5312 53.3281 23.8047 52.6641 24C52.0078 24.1953 51.3086 24.293 50.5664 24.293C49.6211 24.293 48.7539 24.1562 47.9648 23.8828C47.1758 23.6016 46.5 23.1797 45.9375 22.6172C45.3672 22.0547 44.9258 21.3438 44.6133 20.4844C44.3008 19.625 44.1445 18.6211 44.1445 17.4727C44.1445 15.332 44.7305 13.6523 45.9023 12.4336C47.082 11.2148 48.6367 10.6055 50.5664 10.6055C51.3164 10.6055 52.0508 10.7109 52.7695 10.9219C53.4961 11.1328 54.1602 11.3906 54.7617 11.6953V14.1445H54.6445C53.9727 13.6211 53.2773 13.2188 52.5586 12.9375C51.8477 12.6562 51.1523 12.5156 50.4727 12.5156C49.2227 12.5156 48.2344 12.9375 47.5078 13.7812C46.7891 14.6172 46.4297 15.8477 46.4297 17.4727C46.4297 19.0508 46.7812 20.2656 47.4844 21.1172C48.1953 21.9609 49.1914 22.3828 50.4727 22.3828C50.918 22.3828 51.3711 22.3242 51.832 22.207C52.293 22.0898 52.707 21.9375 53.0742 21.75C53.3945 21.5859 53.6953 21.4141 53.9766 21.2344C54.2578 21.0469 54.4805 20.8867 54.6445 20.7539H54.7617V23.1797ZM68.4492 24H66.2461V22.5469C65.5039 23.1328 64.793 23.582 64.1133 23.8945C63.4336 24.207 62.6836 24.3633 61.8633 24.3633C60.4883 24.3633 59.418 23.9453 58.6523 23.1094C57.8867 22.2656 57.5039 21.0312 57.5039 19.4062V10.9102H59.707V18.3633C59.707 19.0273 59.7383 19.5977 59.8008 20.0742C59.8633 20.543 59.9961 20.9453 60.1992 21.2812C60.4102 21.625 60.6836 21.875 61.0195 22.0312C61.3555 22.1875 61.8438 22.2656 62.4844 22.2656C63.0547 22.2656 63.6758 22.1172 64.3477 21.8203C65.0273 21.5234 65.6602 21.1445 66.2461 20.6836V10.9102H68.4492V24ZM83.7422 17.6836H74.0977C74.0977 18.4883 74.2188 19.1914 74.4609 19.793C74.7031 20.3867 75.0352 20.875 75.457 21.2578C75.8633 21.6328 76.3438 21.9141 76.8984 22.1016C77.4609 22.2891 78.0781 22.3828 78.75 22.3828C79.6406 22.3828 80.5352 22.207 81.4336 21.8555C82.3398 21.4961 82.9844 21.1445 83.3672 20.8008H83.4844V23.2031C82.7422 23.5156 81.9844 23.7773 81.2109 23.9883C80.4375 24.1992 79.625 24.3047 78.7734 24.3047C76.6016 24.3047 74.9062 23.7188 73.6875 22.5469C72.4688 21.3672 71.8594 19.6953 71.8594 17.5312C71.8594 15.3906 72.4414 13.6914 73.6055 12.4336C74.7773 11.1758 76.3164 10.5469 78.2227 10.5469C79.9883 10.5469 81.3477 11.0625 82.3008 12.0938C83.2617 13.125 83.7422 14.5898 83.7422 16.4883V17.6836ZM81.5977 15.9961C81.5898 14.8398 81.2969 13.9453 80.7188 13.3125C80.1484 12.6797 79.2773 12.3633 78.1055 12.3633C76.9258 12.3633 75.9844 12.7109 75.2812 13.4062C74.5859 14.1016 74.1914 14.9648 74.0977 15.9961H81.5977ZM174.621 24H163.125V6.55078H174.621V8.61328H165.445V13.3945H174.621V15.457H165.445V21.9375H174.621V24ZM188.988 24H186.785V22.5469C186.043 23.1328 185.332 23.582 184.652 23.8945C183.973 24.207 183.223 24.3633 182.402 24.3633C181.027 24.3633 179.957 23.9453 179.191 23.1094C178.426 22.2656 178.043 21.0312 178.043 19.4062V10.9102H180.246V18.3633C180.246 19.0273 180.277 19.5977 180.34 20.0742C180.402 20.543 180.535 20.9453 180.738 21.2812C180.949 21.625 181.223 21.875 181.559 22.0312C181.895 22.1875 182.383 22.2656 183.023 22.2656C183.594 22.2656 184.215 22.1172 184.887 21.8203C185.566 21.5234 186.199 21.1445 186.785 20.6836V10.9102H188.988V24ZM201.492 13.3125H201.375C201.047 13.2344 200.727 13.1797 200.414 13.1484C200.109 13.1094 199.746 13.0898 199.324 13.0898C198.645 13.0898 197.988 13.2422 197.355 13.5469C196.723 13.8438 196.113 14.2305 195.527 14.707V24H193.324V10.9102H195.527V12.8438C196.402 12.1406 197.172 11.6445 197.836 11.3555C198.508 11.0586 199.191 10.9102 199.887 10.9102C200.27 10.9102 200.547 10.9219 200.719 10.9453C200.891 10.9609 201.148 10.9961 201.492 11.0508V13.3125ZM214.723 17.4609C214.723 19.5938 214.176 21.2773 213.082 22.5117C211.988 23.7461 210.523 24.3633 208.688 24.3633C206.836 24.3633 205.363 23.7461 204.27 22.5117C203.184 21.2773 202.641 19.5938 202.641 17.4609C202.641 15.3281 203.184 13.6445 204.27 12.4102C205.363 11.168 206.836 10.5469 208.688 10.5469C210.523 10.5469 211.988 11.168 213.082 12.4102C214.176 13.6445 214.723 15.3281 214.723 17.4609ZM212.449 17.4609C212.449 15.7656 212.117 14.5078 211.453 13.6875C210.789 12.8594 209.867 12.4453 208.688 12.4453C207.492 12.4453 206.562 12.8594 205.898 13.6875C205.242 14.5078 204.914 15.7656 204.914 17.4609C204.914 19.1016 205.246 20.3477 205.91 21.1992C206.574 22.043 207.5 22.4648 208.688 22.4648C209.859 22.4648 210.777 22.0469 211.441 21.2109C212.113 20.3672 212.449 19.1172 212.449 17.4609ZM229.664 17.2969C229.664 18.3594 229.512 19.332 229.207 20.2148C228.902 21.0898 228.473 21.832 227.918 22.4414C227.402 23.0195 226.793 23.4688 226.09 23.7891C225.395 24.1016 224.656 24.2578 223.875 24.2578C223.195 24.2578 222.578 24.1836 222.023 24.0352C221.477 23.8867 220.918 23.6562 220.348 23.3438V28.8281H218.145V10.9102H220.348V12.2812C220.934 11.7891 221.59 11.3789 222.316 11.0508C223.051 10.7148 223.832 10.5469 224.66 10.5469C226.238 10.5469 227.465 11.1445 228.34 12.3398C229.223 13.5273 229.664 15.1797 229.664 17.2969ZM227.391 17.3555C227.391 15.7773 227.121 14.5977 226.582 13.8164C226.043 13.0352 225.215 12.6445 224.098 12.6445C223.465 12.6445 222.828 12.7812 222.188 13.0547C221.547 13.3281 220.934 13.6875 220.348 14.1328V21.5508C220.973 21.832 221.508 22.0234 221.953 22.125C222.406 22.2266 222.918 22.2773 223.488 22.2773C224.715 22.2773 225.672 21.8633 226.359 21.0352C227.047 20.207 227.391 18.9805 227.391 17.3555ZM244.055 17.6836H234.41C234.41 18.4883 234.531 19.1914 234.773 19.793C235.016 20.3867 235.348 20.875 235.77 21.2578C236.176 21.6328 236.656 21.9141 237.211 22.1016C237.773 22.2891 238.391 22.3828 239.062 22.3828C239.953 22.3828 240.848 22.207 241.746 21.8555C242.652 21.4961 243.297 21.1445 243.68 20.8008H243.797V23.2031C243.055 23.5156 242.297 23.7773 241.523 23.9883C240.75 24.1992 239.938 24.3047 239.086 24.3047C236.914 24.3047 235.219 23.7188 234 22.5469C232.781 21.3672 232.172 19.6953 232.172 17.5312C232.172 15.3906 232.754 13.6914 233.918 12.4336C235.09 11.1758 236.629 10.5469 238.535 10.5469C240.301 10.5469 241.66 11.0625 242.613 12.0938C243.574 13.125 244.055 14.5898 244.055 16.4883V17.6836ZM241.91 15.9961C241.902 14.8398 241.609 13.9453 241.031 13.3125C240.461 12.6797 239.59 12.3633 238.418 12.3633C237.238 12.3633 236.297 12.7109 235.594 13.4062C234.898 14.1016 234.504 14.9648 234.41 15.9961H241.91Z" fill="black"/>
<path d="M103.629 15.293C103.629 16.918 103.258 18.375 102.516 19.6641C101.773 20.9453 100.836 21.9297 99.7031 22.6172C98.8516 23.1328 97.918 23.4922 96.9023 23.6953C95.8867 23.8984 94.6836 24 93.293 24H87.1406V6.55078H93.4688C94.8906 6.55078 96.1172 6.67187 97.1484 6.91406C98.1797 7.14844 99.0469 7.48438 99.75 7.92188C100.953 8.65625 101.898 9.64844 102.586 10.8984C103.281 12.1406 103.629 13.6055 103.629 15.293ZM98.9766 15.2578C98.9766 14.1094 98.7656 13.1289 98.3438 12.3164C97.9297 11.4961 97.2695 10.8555 96.3633 10.3945C95.9023 10.168 95.4297 10.0156 94.9453 9.9375C94.4688 9.85156 93.7461 9.80859 92.7773 9.80859H91.6406V20.7305H92.7773C93.8477 20.7305 94.6328 20.6836 95.1328 20.5898C95.6328 20.4883 96.1211 20.3086 96.5977 20.0508C97.418 19.582 98.0195 18.957 98.4023 18.1758C98.7852 17.3867 98.9766 16.4141 98.9766 15.2578ZM120.281 17.4258C120.281 19.5898 119.648 21.2969 118.383 22.5469C117.125 23.7891 115.355 24.4102 113.074 24.4102C110.793 24.4102 109.02 23.7891 107.754 22.5469C106.496 21.2969 105.867 19.5898 105.867 17.4258C105.867 15.2461 106.5 13.5352 107.766 12.293C109.039 11.0508 110.809 10.4297 113.074 10.4297C115.371 10.4297 117.145 11.0547 118.395 12.3047C119.652 13.5547 120.281 15.2617 120.281 17.4258ZM115.09 20.625C115.363 20.2891 115.566 19.8867 115.699 19.418C115.84 18.9414 115.91 18.2852 115.91 17.4492C115.91 16.6758 115.84 16.0273 115.699 15.5039C115.559 14.9805 115.363 14.5625 115.113 14.25C114.863 13.9297 114.562 13.7031 114.211 13.5703C113.859 13.4375 113.48 13.3711 113.074 13.3711C112.668 13.3711 112.305 13.4258 111.984 13.5352C111.672 13.6445 111.371 13.8633 111.082 14.1914C110.824 14.4961 110.617 14.9141 110.461 15.4453C110.312 15.9766 110.238 16.6445 110.238 17.4492C110.238 18.168 110.305 18.793 110.438 19.3242C110.57 19.8477 110.766 20.2695 111.023 20.5898C111.273 20.8945 111.57 21.1172 111.914 21.2578C112.266 21.3984 112.664 21.4688 113.109 21.4688C113.492 21.4688 113.855 21.4062 114.199 21.2812C114.551 21.1484 114.848 20.9297 115.09 20.625ZM136.102 22.4883C136.102 23.7227 135.926 24.7617 135.574 25.6055C135.223 26.4492 134.73 27.1094 134.098 27.5859C133.465 28.0703 132.699 28.418 131.801 28.6289C130.91 28.8477 129.902 28.957 128.777 28.957C127.863 28.957 126.961 28.9023 126.07 28.793C125.188 28.6836 124.422 28.5508 123.773 28.3945V25.1016H124.289C124.805 25.3047 125.434 25.4883 126.176 25.6523C126.918 25.8242 127.582 25.9102 128.168 25.9102C128.949 25.9102 129.582 25.8359 130.066 25.6875C130.559 25.5469 130.934 25.3438 131.191 25.0781C131.434 24.8281 131.609 24.5078 131.719 24.1172C131.828 23.7266 131.883 23.2578 131.883 22.7109V22.4648C131.375 22.8789 130.812 23.207 130.195 23.4492C129.578 23.6914 128.891 23.8125 128.133 23.8125C126.289 23.8125 124.867 23.2578 123.867 22.1484C122.867 21.0391 122.367 19.3516 122.367 17.0859C122.367 16 122.52 15.0625 122.824 14.2734C123.129 13.4844 123.559 12.7969 124.113 12.2109C124.629 11.6641 125.262 11.2383 126.012 10.9336C126.77 10.6289 127.543 10.4766 128.332 10.4766C129.043 10.4766 129.688 10.5625 130.266 10.7344C130.852 10.8984 131.383 11.1289 131.859 11.4258L132.012 10.8398H136.102V22.4883ZM131.883 19.8516V13.8867C131.641 13.7852 131.344 13.707 130.992 13.6523C130.641 13.5898 130.324 13.5586 130.043 13.5586C128.934 13.5586 128.102 13.8789 127.547 14.5195C126.992 15.1523 126.715 16.0391 126.715 17.1797C126.715 18.4453 126.949 19.3281 127.418 19.8281C127.895 20.3281 128.598 20.5781 129.527 20.5781C129.949 20.5781 130.363 20.5117 130.77 20.3789C131.176 20.2461 131.547 20.0703 131.883 19.8516ZM151.523 19.8281C151.523 21.1875 150.914 22.2852 149.695 23.1211C148.477 23.9492 146.809 24.3633 144.691 24.3633C143.52 24.3633 142.457 24.2539 141.504 24.0352C140.551 23.8164 139.785 23.5742 139.207 23.3086V19.8398H139.594C139.805 19.9883 140.047 20.1523 140.32 20.332C140.602 20.5039 140.996 20.6914 141.504 20.8945C141.941 21.0742 142.438 21.2305 142.992 21.3633C143.547 21.4883 144.141 21.5508 144.773 21.5508C145.602 21.5508 146.215 21.4609 146.613 21.2812C147.012 21.0938 147.211 20.8203 147.211 20.4609C147.211 20.1406 147.094 19.9102 146.859 19.7695C146.625 19.6211 146.18 19.4805 145.523 19.3477C145.211 19.2773 144.785 19.2031 144.246 19.125C143.715 19.0391 143.23 18.9375 142.793 18.8203C141.598 18.5078 140.711 18.0234 140.133 17.3672C139.555 16.7031 139.266 15.8789 139.266 14.8945C139.266 13.6289 139.863 12.5781 141.059 11.7422C142.262 10.8984 143.902 10.4766 145.98 10.4766C146.965 10.4766 147.906 10.5781 148.805 10.7812C149.711 10.9766 150.418 11.1875 150.926 11.4141V14.7422H150.562C149.938 14.3125 149.223 13.9648 148.418 13.6992C147.621 13.4258 146.812 13.2891 145.992 13.2891C145.312 13.2891 144.738 13.3828 144.27 13.5703C143.809 13.7578 143.578 14.0234 143.578 14.3672C143.578 14.6797 143.684 14.918 143.895 15.082C144.105 15.2461 144.602 15.4102 145.383 15.5742C145.812 15.6602 146.273 15.7461 146.766 15.832C147.266 15.9102 147.766 16.0117 148.266 16.1367C149.375 16.4258 150.195 16.8828 150.727 17.5078C151.258 18.125 151.523 18.8984 151.523 19.8281Z" fill="#CB0000"/>
</svg>
